<mxfile host="app.diagrams.net" agent="Mozilla/5.0 (Windows NT 10.0; Win64; x64) AppleWebKit/537.36 (KHTML, like Gecko) Chrome/137.0.0.0 Safari/537.36" version="26.0.8">
  <diagram name="Page-1" id="DM4lQlNblv0Xr2ekihwX">
    <mxGraphModel dx="875" dy="471" grid="1" gridSize="10" guides="1" tooltips="1" connect="1" arrows="1" fold="1" page="1" pageScale="1" pageWidth="850" pageHeight="1100" math="0" shadow="0">
      <root>
        <mxCell id="0" />
        <mxCell id="1" parent="0" />
        <mxCell id="kDTR7iMiuQiCtSM2EV43-2" style="edgeStyle=orthogonalEdgeStyle;rounded=0;orthogonalLoop=1;jettySize=auto;html=1;exitX=1;exitY=0.5;exitDx=0;exitDy=0;exitPerimeter=0;" edge="1" parent="1" source="kDTR7iMiuQiCtSM2EV43-1">
          <mxGeometry relative="1" as="geometry">
            <mxPoint x="250" y="185" as="targetPoint" />
          </mxGeometry>
        </mxCell>
        <mxCell id="kDTR7iMiuQiCtSM2EV43-1" value="" style="verticalLabelPosition=bottom;html=1;verticalAlign=top;align=center;strokeColor=none;fillColor=#00BEF2;shape=mxgraph.azure.mobile;pointerEvents=1;" vertex="1" parent="1">
          <mxGeometry x="120" y="160" width="35" height="50" as="geometry" />
        </mxCell>
        <mxCell id="kDTR7iMiuQiCtSM2EV43-3" value="Request" style="text;html=1;align=center;verticalAlign=middle;resizable=0;points=[];autosize=1;strokeColor=none;fillColor=none;" vertex="1" parent="1">
          <mxGeometry x="165" y="158" width="70" height="30" as="geometry" />
        </mxCell>
        <mxCell id="kDTR7iMiuQiCtSM2EV43-4" value="Service worker" style="rounded=1;whiteSpace=wrap;html=1;" vertex="1" parent="1">
          <mxGeometry x="250" y="158" width="90" height="52" as="geometry" />
        </mxCell>
        <mxCell id="kDTR7iMiuQiCtSM2EV43-5" value="" style="endArrow=classic;html=1;rounded=0;exitX=0.5;exitY=0;exitDx=0;exitDy=0;" edge="1" parent="1" source="kDTR7iMiuQiCtSM2EV43-4">
          <mxGeometry relative="1" as="geometry">
            <mxPoint x="340" y="290" as="sourcePoint" />
            <mxPoint x="470" y="90" as="targetPoint" />
            <Array as="points">
              <mxPoint x="295" y="90" />
            </Array>
          </mxGeometry>
        </mxCell>
        <mxCell id="kDTR7iMiuQiCtSM2EV43-6" value="Online Mode" style="edgeLabel;resizable=0;html=1;;align=center;verticalAlign=middle;" connectable="0" vertex="1" parent="kDTR7iMiuQiCtSM2EV43-5">
          <mxGeometry relative="1" as="geometry">
            <mxPoint x="21" as="offset" />
          </mxGeometry>
        </mxCell>
        <mxCell id="kDTR7iMiuQiCtSM2EV43-7" value="" style="image;aspect=fixed;perimeter=ellipsePerimeter;html=1;align=center;shadow=0;dashed=0;fontColor=#4277BB;labelBackgroundColor=default;fontSize=12;spacingTop=3;image=img/lib/ibm/infrastructure/mobile_backend.svg;" vertex="1" parent="1">
          <mxGeometry x="470" y="60" width="60" height="60" as="geometry" />
        </mxCell>
        <mxCell id="kDTR7iMiuQiCtSM2EV43-8" value="Backend" style="text;html=1;align=center;verticalAlign=middle;resizable=0;points=[];autosize=1;strokeColor=none;fillColor=none;" vertex="1" parent="1">
          <mxGeometry x="465" y="28" width="70" height="30" as="geometry" />
        </mxCell>
        <mxCell id="kDTR7iMiuQiCtSM2EV43-9" value="" style="endArrow=classic;html=1;rounded=0;exitX=0.5;exitY=1;exitDx=0;exitDy=0;" edge="1" parent="1" source="kDTR7iMiuQiCtSM2EV43-4">
          <mxGeometry relative="1" as="geometry">
            <mxPoint x="295" y="250" as="sourcePoint" />
            <mxPoint x="470" y="280" as="targetPoint" />
            <Array as="points">
              <mxPoint x="295" y="280" />
            </Array>
          </mxGeometry>
        </mxCell>
        <mxCell id="kDTR7iMiuQiCtSM2EV43-10" value="Offline Mode" style="edgeLabel;resizable=0;html=1;;align=center;verticalAlign=middle;" connectable="0" vertex="1" parent="kDTR7iMiuQiCtSM2EV43-9">
          <mxGeometry relative="1" as="geometry">
            <mxPoint x="20" as="offset" />
          </mxGeometry>
        </mxCell>
        <mxCell id="kDTR7iMiuQiCtSM2EV43-13" value="" style="outlineConnect=0;dashed=0;verticalLabelPosition=bottom;verticalAlign=top;align=center;html=1;shape=mxgraph.aws3.cache_node;fillColor=#2E73B8;gradientColor=none;" vertex="1" parent="1">
          <mxGeometry x="475" y="250" width="65" height="60" as="geometry" />
        </mxCell>
        <mxCell id="kDTR7iMiuQiCtSM2EV43-14" value="Browser&amp;nbsp;&lt;div&gt;Cache&lt;/div&gt;" style="text;html=1;align=center;verticalAlign=middle;resizable=0;points=[];autosize=1;strokeColor=none;fillColor=none;" vertex="1" parent="1">
          <mxGeometry x="470" y="210" width="70" height="40" as="geometry" />
        </mxCell>
      </root>
    </mxGraphModel>
  </diagram>
</mxfile>
